<svg xmlns="http://www.w3.org/2000/svg" viewBox="0 0 333 341">
    <defs>
        <style>.cls-1{fill:#666;}.cls-2{fill:#f2f2f2;}</style>
    </defs>
    <title>Support-icon_1</title>
    <g id="Layer_2" data-name="Layer 2">
        <g id="Layer_1-2" data-name="Layer 1">
            <path class="cls-1"
                  d="M333,151.4C333,67.79,258.46,0,166.5,0S0,67.79,0,151.4c0,68.71,50.33,126.71,119.29,145.22-19,21.51-48.12,35.29-80.79,35.29a112.55,112.55,0,0,1-24.43-2.65c-.93.71-1.87,1.39-2.82,2.06A246.56,246.56,0,0,0,80,341c55.11,0,105.61-17.95,144.83-47.75C288,271.75,333,216.36,333,151.4Z"/>
            <path class="cls-2"
                  d="M146,214.56l-.7-8.27c-2.1-17.19,4.2-36,21.7-55.06,15.75-16.87,24.5-29.29,24.5-43.61,0-16.23-11.2-27.05-33.25-27.37-12.6,0-26.6,3.82-35.35,9.87l-8.4-20.05c11.55-7.64,31.5-12.73,50.05-12.73,40.25,0,58.45,22.59,58.45,46.78,0,21.64-13.3,37.24-30.1,55.38-15.4,16.55-21,30.56-19.95,46.79l.35,8.27Zm-7.7,44.56c0-11.78,8.75-20.05,21-20.05S180,247.34,180,259.12c0,11.14-8.05,19.73-21,19.73C146.74,278.85,138.34,270.26,138.34,259.12Z"/>
        </g>
    </g>
</svg>
