<svg xmlns="http://www.w3.org/2000/svg" viewBox="0 0 617 450.64">
    <defs>
        <style>.cls-1{fill:#666;}</style>
    </defs>
    <title>Sign-up-icon_2</title>
    <g id="Layer_2" data-name="Layer 2">
        <g id="Layer_1-2" data-name="Layer 1">
            <circle class="cls-1" cx="154.5" cy="94.5" r="94.5"/>
            <path class="cls-1"
                  d="M298.94,308.22c18.21,31.72,11.16,73-16.8,95.39-37.21,29.84-80.9,47-127.64,47s-90.43-17.19-127.64-47c-28-22.42-35-63.67-16.8-95.39,35.87-62.46,87.3-101.58,144.44-101.58S263.07,245.76,298.94,308.22Z"/>
            <polygon class="cls-1"
                     points="617 183.39 501.5 183.39 501.5 71 435.5 71 435.5 183.39 320 183.39 320 247.61 435.5 247.61 435.5 360 501.5 360 501.5 247.61 617 247.61 617 183.39"/>
        </g>
    </g>
</svg>
