<svg xmlns="http://www.w3.org/2000/svg" viewBox="0 0 827 731">
    <defs>
        <style>.cls-1{fill:#666;}</style>
    </defs>
    <title>Login-icon</title>
    <g id="Layer_2" data-name="Layer 2">
        <g id="Layer_1-2" data-name="Layer 1">
            <path class="cls-1"
                  d="M461.5,0A363.78,363.78,0,0,0,276.64,50.13a39,39,0,1,0,37.28,65.1A289.14,289.14,0,0,1,461.5,75C621.94,75,752,205.06,752,365.5S621.94,656,461.5,656a289.07,289.07,0,0,1-145.65-39.11,39,39,0,1,0-42.53,62A363.68,363.68,0,0,0,461.5,731C663.36,731,827,567.36,827,365.5S663.36,0,461.5,0Z"/>
            <path class="cls-1"
                  d="M143.5,222A143.5,143.5,0,1,0,287,365.5,143.5,143.5,0,0,0,143.5,222Zm.25,233A89.08,89.08,0,1,1,233,365.92,89.16,89.16,0,0,1,143.75,455Z"/>
            <rect class="cls-1" x="251" y="337" width="422" height="58" rx="29"/>
            <rect class="cls-1" x="392" y="359" width="48" height="150" rx="24"/>
            <rect class="cls-1" x="488" y="337" width="48" height="150" rx="24"/>
        </g>
    </g>
</svg>
