<svg xmlns="http://www.w3.org/2000/svg" viewBox="0 0 802 731">
    <defs>
        <style>.cls-1{fill:#666;}</style>
    </defs>
    <title>Login-icon</title>
    <g id="Layer_2" data-name="Layer 2">
        <g id="Layer_1-2" data-name="Layer 1">
            <path class="cls-1"
                  d="M436.5,0A363.78,363.78,0,0,0,251.64,50.13a39,39,0,1,0,37.28,65.1A289.14,289.14,0,0,1,436.5,75C596.94,75,727,205.06,727,365.5S596.94,656,436.5,656a289.07,289.07,0,0,1-145.65-39.11,39,39,0,1,0-42.53,62A363.68,363.68,0,0,0,436.5,731C638.36,731,802,567.36,802,365.5S638.36,0,436.5,0Z"/>
            <path class="cls-1"
                  d="M392,351v90a24,24,0,0,0,48,0V351h48v68a24,24,0,0,0,48,0V351H644a29.09,29.09,0,0,0,29-29h0a29.09,29.09,0,0,0-29-29H284.17a143.51,143.51,0,1,0-.21,58ZM143.75,411A89.08,89.08,0,1,1,233,321.92,89.16,89.16,0,0,1,143.75,411Z"/>
            <rect class="cls-1" x="392" y="336" width="48" height="226" rx="23.75"/>
            <rect class="cls-1" x="487" y="327" width="54" height="151" rx="25.46"/>
        </g>
    </g>
</svg>
