<svg xmlns="http://www.w3.org/2000/svg" viewBox="0 0 413.13 471.75">
    <defs>
        <style>.cls-1{fill:#666;}</style>
    </defs>
    <title>Contact-us-icon</title>
    <g id="Layer_2" data-name="Layer 2">
        <g id="Layer_1-2" data-name="Layer 1">
            <path class="cls-1"
                  d="M288.41,421.38l-23.09-37L239.44,343c-3.13-5-9.8-7-17.19-5.81a32.39,32.39,0,0,0-12,4.61h0l-31.4,12-.17.11a6.82,6.82,0,0,0-2.74,3.45l-.3-.41c0,.29.08.58.12.87a9.66,9.66,0,0,0,.09,5.75c.07.2.16.4.24.6-.3,6.21-2.53,11.24-6.76,13.88-3.31,2.06-7.39,2.39-11.73,1.26-27.95-15.5-54.59-40.65-75-73.37-.35-.56-.9-1.44-1.61-2.6-20.06-32.95-26.36-62.23-27.72-68.95-1.61-7.94-2.41-14.64-2.8-18.23-.18-1.73-.38-3.67-.56-5.76.59-7.43,3.45-13.13,8.41-15.25,3.63-1.56,7.87-1,12.14,1.29.23.34.46.69.71,1.1a10.59,10.59,0,0,0,2.23,2.59,9.39,9.39,0,0,0,4.73,2.2h.06l.66.67c-.07-.21-.15-.43-.22-.65a6.79,6.79,0,0,0,4.22-1l1.95-1.22,22.34-20.87.76-.48a32.29,32.29,0,0,0,9.88-9.46c3.93-5.95,4.89-12.51,1.87-17.34L91.74,107.55,70.59,73.7c-3.13-5-9.8-7-17.18-5.81a32.78,32.78,0,0,0-12,4.61h0L10,84.49l-.09,0-.18.11c-3,1.87-4,5.86-2.83,9.66.13.4.29.8.46,1.2a314.1,314.1,0,0,0-7.4,68C0,311.78,103,436,241.27,468.63a10.06,10.06,0,0,0,.89.84c2.78,2.37,6.44,3,9.25,1.38a1.18,1.18,0,0,0,.19-.11l2-1.22,22.34-20.87.75-.47a32.18,32.18,0,0,0,9.88-9.46C290.47,432.77,291.43,426.21,288.41,421.38Z"/>
            <path class="cls-1"
                  d="M327,299.29l-30-10.45c26-75.49-10.31-156.63-81.36-181.59l11.07-31.81C314.35,106.17,359.18,206.23,327,299.29Z"/>
            <path class="cls-1"
                  d="M262.36,276.77l-32.3-11.25c12.38-36.26-5.07-75.16-39.14-87.24l12-34.4C254.82,162.17,281.35,221.52,262.36,276.77Z"/>
            <path class="cls-1"
                  d="M398,324,363.39,312C403,197.59,347.87,74.6,240.16,36.88L253,0C379.81,44.38,444.65,189.27,398,324Z"/>
        </g>
    </g>
</svg>
