<svg xmlns="http://www.w3.org/2000/svg" viewBox="0 0 447 449.74"><defs><style>.cls-1{fill:#cdcbcc;}.cls-2{fill:#e3e3e3;}.cls-3{fill:gray;stroke:#000;stroke-miterlimit:10;stroke-width:0.75px;}</style></defs><title>Logo</title><g id="Layer_2" data-name="Layer 2"><g id="Layer_1-2" data-name="Layer 1"><ellipse class="cls-1" cx="223.5" cy="224.87" rx="223.5" ry="224.87"/><ellipse class="cls-2" cx="223.5" cy="224.87" rx="167" ry="168.03"/><path class="cls-3" d="M126.3,119.59c-1.63-.11-12.28-.85-19,6.94-6.37,7.33-5.64,18-5.51,20,1.85,27,48.45,54.36,64.74,50L291.79,341.08l-.07.08c7.83,7.43,15.94,9.27,18.29,4.64,1.93-3.79-.38-11.26-5.67-18.22l.16-.19L172.4,189.23C175.25,170.56,150.62,121.28,126.3,119.59Z"/><path class="cls-3" d="M300.12,173.45l37.6-41.19-41.19,37.26-4.32-4.74,35.51-43.72L287.81,160l-4.89-5.35,35.51-43.72-39.9,38.9-3.6-3.94L309,100.59l-37.7,41.32h0a108.77,108.77,0,0,0-6.77,8.63c-5.67,8-8.5,12.17-7.81,17.68.18,1.41.87,5.35,4.72,10.46L127,318.45l-.08-.07c-6.6,8.39-8.16,17.14-4,19.74,3.44,2.13,10.15-.28,16.37-5.92l.16.18L267.52,185.25c4.24,3.58,7.47,4.28,8.68,4.47,5,.79,8.75-2.26,16-8.4a98.48,98.48,0,0,0,8.1-7.65Z"/></g></g></svg>