<svg xmlns="http://www.w3.org/2000/svg" viewBox="0 0 158.42 23.04">
    <defs>
        <style>.cls-1{fill:#ff3880;}</style>
    </defs>
    <title>Onilne-kitchen-logo</title>
    <g id="Layer_2" data-name="Layer 2">
        <g id="Layer_1-2" data-name="Layer 1">
            <path class="cls-1"
                  d="M6.27,22.37C2.21,22.37,0,20,0,15,0,8.4,5.82,1.06,10.16,1.06a1.61,1.61,0,0,1,1.6,1.63,3.85,3.85,0,0,1,2.13-.62c2.46,0,3.72,2.19,3.72,4.48a21.32,21.32,0,0,1-2.88,9.8,2.18,2.18,0,0,0,1.26.37c.87,0,2-.82,2.94-2.41a1.1,1.1,0,0,1,1.09,1c0,1.26-2.16,4.17-4.7,4.17a3.8,3.8,0,0,1-2.19-.65A8.46,8.46,0,0,1,6.27,22.37Zm1.51-4.11a3.42,3.42,0,0,0,2.86-1.46,9.08,9.08,0,0,1-1.9-6,13.67,13.67,0,0,1,1.62-6.72A12.23,12.23,0,0,0,5,14C5,16.55,6,18.26,7.78,18.26ZM14,8.23c0-1.26-.25-2-1.6-2.15A23.22,23.22,0,0,0,12,10.19a9.82,9.82,0,0,0,.61,3.7A16.75,16.75,0,0,0,14,8.23Z"/>
            <path class="cls-1"
                  d="M18.42,13.16c0-1.65,2.5-4.59,4.23-4.59,1,0,1.21.33,1.21,1.17a10.68,10.68,0,0,1-1.12,4c2-3.53,4-4.79,5.2-4.79a1.8,1.8,0,0,1,1.94,1.93A7.9,7.9,0,0,1,29.06,14a19.51,19.51,0,0,0-1.4,3.92c0,.31.14.42.4.42.56,0,2.32-1.43,4.06-3.92a1,1,0,0,1,1.09.92c0,1.77-4.73,6.5-7.31,6.5-1.65,0-2.21-.73-2.21-2.27,0-1.85,1.43-4.67,1.43-5.29a.31.31,0,0,0-.34-.34c-.25,0-1.18.42-2.27,1.94a34.29,34.29,0,0,0-.64,5.32c-.28.28-.48.36-1.12.36A3,3,0,0,1,18,18.4a10.16,10.16,0,0,1,.7-3.5A4.74,4.74,0,0,1,18.42,13.16Z"/>
            <path class="cls-1"
                  d="M33.07,7C33.57,3.25,35.56,1,37.77,1a1.74,1.74,0,0,1,2,2c0,1.23-.56,2.6-2.66,6.55C36.32,12.24,35,17.11,35,17.81c0,.31.14.42.39.42.87,0,2.52-1.6,4-3.87a1,1,0,0,1,1.06,1c0,2.12-4.53,6.52-7.36,6.52-1.63,0-2.21-.7-2.21-2.16A39.15,39.15,0,0,1,32,13.38C32.31,11.56,32.82,8.93,33.07,7Z"/>
            <path class="cls-1"
                  d="M39.09,13.72c0-1.65,2.49-4.59,4.23-4.59,1.28,0,1.4.7,1.4,1.79a10.12,10.12,0,0,1-1,3.08,11.84,11.84,0,0,0-1.15,3.47c0,.31.14.42.39.42s1.65-.89,3.53-3.55a1.09,1.09,0,0,1,1.09,1c0,1.77-4.45,6.5-7,6.5-1.65,0-2.21-.73-2.21-2.27a10.62,10.62,0,0,1,1-4.11A4.54,4.54,0,0,1,39.09,13.72Zm5.26-12a2.66,2.66,0,0,1,2.38,2.1c0,.67-.53,1.76-1.87,3.41-1.1,0-1.88-.81-1.88-2.43C43,2.55,43.46,1.74,44.35,1.74Z"/>
            <path class="cls-1"
                  d="M46.06,13.16c0-1.65,2.49-4.59,4.23-4.59,1,0,1.2.33,1.2,1.17a10.5,10.5,0,0,1-1.12,4c2.05-3.53,4-4.79,5.21-4.79a1.79,1.79,0,0,1,1.93,1.93A7.85,7.85,0,0,1,56.7,14a19.51,19.51,0,0,0-1.4,3.92c0,.31.14.42.39.42.56,0,2.33-1.43,4.06-3.92a1,1,0,0,1,1.09.92c0,1.77-4.73,6.5-7.3,6.5-1.66,0-2.22-.73-2.22-2.27,0-1.85,1.43-4.67,1.43-5.29a.3.3,0,0,0-.33-.34c-.26,0-1.18.42-2.27,1.94a35.64,35.64,0,0,0-.65,5.32c-.28.28-.47.36-1.12.36a3,3,0,0,1-2.74-3.16,9.93,9.93,0,0,1,.7-3.5A4.74,4.74,0,0,1,46.06,13.16Z"/>
            <path class="cls-1"
                  d="M58.6,17c0-4.23,3.45-8.54,6.16-8.54,1.94,0,3,.92,3,2.88,0,2.35-1.37,4.17-5.21,5,0,1.26.25,2,1.35,2,1.9,0,4.36-1.62,6-4.06a1,1,0,0,1,1.06.92c0,2.08-4.67,6.53-8.31,6.53C59.86,21.73,58.6,20,58.6,17Zm5.46-5.6c-.39,0-1.14.95-1.34,2.91,1.57-.28,1.9-1.15,1.9-2C64.62,11.73,64.4,11.4,64.06,11.4Z"/>
            <path class="cls-1"
                  d="M89.35,5.54C90.94,1.82,91.7,1.4,93.18,1.4a2.76,2.76,0,0,1,2.75,2.88,2.08,2.08,0,0,1-.51,1.4c-1.09.09-1.45.37-3.19,2.86a28.53,28.53,0,0,1-4.42,5.26c1,.68,2,2.66,3,4.62.34.68.62.84,1,.84A6.71,6.71,0,0,0,93,19.1a1.62,1.62,0,0,1,.33,1c0,1.54-2.12,2.94-4.11,2.94-1.07,0-1.57-.42-2.27-1.93-1.76-3.83-2.38-5.15-3.67-5.57L82,21.48a1.64,1.64,0,0,1-1.17.36,3.29,3.29,0,0,1-3.14-3,9.05,9.05,0,0,1,1.85-4.42l.36-1.71a8.28,8.28,0,0,1-.86.06c-2.44,0-4.48-1.46-4.48-3.9,0-4,5.32-8.9,8.76-8.9,2,0,2.86,1.06,2.86,2.55a93.12,93.12,0,0,1-2.19,10.33,9.62,9.62,0,0,1,1.4-.08A35.2,35.2,0,0,0,89.35,5.54ZM81.84,4.37c0-.51-.17-.73-.5-.73-.79,0-3.25,2.35-3.25,4.26,0,1.17.76,1.76,2.44,2.29A31.42,31.42,0,0,0,81.84,4.37Z"/>
            <path class="cls-1"
                  d="M95.09,13.72c0-1.65,2.49-4.59,4.22-4.59,1.29,0,1.4.7,1.4,1.79a9.85,9.85,0,0,1-1,3.08,12,12,0,0,0-1.14,3.47c0,.31.14.42.39.42s1.65-.89,3.53-3.55a1.09,1.09,0,0,1,1.09,1c0,1.77-4.45,6.5-7,6.5-1.65,0-2.21-.73-2.21-2.27a10.62,10.62,0,0,1,1-4.11A4.54,4.54,0,0,1,95.09,13.72Zm5.26-12a2.66,2.66,0,0,1,2.38,2.1c0,.67-.53,1.76-1.88,3.41C99.76,7.25,99,6.44,99,4.82,99,2.55,99.45,1.74,100.35,1.74Z"/>
            <path class="cls-1"
                  d="M107.71,9.63a21.15,21.15,0,0,0,2.41-.19,1.52,1.52,0,0,1,.53,1.17A1.73,1.73,0,0,1,109,12.49a11.11,11.11,0,0,1-2-.17,31,31,0,0,0-1,5.07c0,.67.16,1,.75,1,1.15,0,3.08-1.35,5-4a1.08,1.08,0,0,1,1.12.95c0,1.65-4.29,6.66-7.51,6.66-2.15,0-3.61-1.12-3.61-3.69a25.56,25.56,0,0,1,1.34-6.08c-.56-.06-1-.11-1-.73a1.66,1.66,0,0,1,1.76-1.68c1.4-3.67,2.89-6.3,4.76-6.3.62,0,1.09.28,1.09.93C109.67,5.26,108.67,6.66,107.71,9.63Z"/>
            <path class="cls-1"
                  d="M122.33,6.89a20.46,20.46,0,0,0-3.81-.48c-1,0-1.65.81-1.71,2.35,1.82,0,2.78.65,2.78,1.88s-.59,3-2.13,3a2.55,2.55,0,0,1-1.88-1.46,7.14,7.14,0,0,0-1.12,4c0,1.54.45,2.24,1.4,2.24.7,0,1.35-.5,2.8-2.3a.9.9,0,0,1,.93.93c0,1.29-2.52,4.84-5.32,4.84-2.5,0-3.7-1.87-3.7-4.81a9.28,9.28,0,0,1,4-7.37,8.18,8.18,0,0,1-.22-1.79A4.4,4.4,0,0,1,119,3.08a11.33,11.33,0,0,1,4.08,1c.82-2.27,1.82-3.36,3.2-3.36,1.2,0,2.66,1,2.66,2.1s-.82,2-3,3.84a42.92,42.92,0,0,0-1,5.6c2-1.85,4-2.92,5.07-2.92A1.51,1.51,0,0,1,131.65,11a7.7,7.7,0,0,1-.67,2.8,23.25,23.25,0,0,0-1.4,4.2c0,.3.14.42.39.42.51,0,2.24-1.38,4.06-4a1,1,0,0,1,1.1.92c0,1.77-4.76,6.67-7.34,6.67-1.65,0-2.21-.73-2.21-2.27,0-1.85,1.45-5.07,1.45-5.68,0-.23-.08-.45-.39-.45a3.33,3.33,0,0,0-1.9,1c-.2,1.46-.48,4.82-.51,6.69a1.2,1.2,0,0,1-1,.39A2.83,2.83,0,0,1,120.26,19a8.62,8.62,0,0,1,.75-3.36A79.23,79.23,0,0,1,122.33,6.89Z"/>
            <path class="cls-1"
                  d="M132.89,17c0-4.23,3.44-8.54,6.16-8.54,1.93,0,3,.92,3,2.88,0,2.35-1.37,4.17-5.21,5,0,1.26.26,2,1.35,2,1.9,0,4.37-1.62,6-4.06a1,1,0,0,1,1.07.92c0,2.08-4.68,6.53-8.32,6.53C134.15,21.73,132.89,20,132.89,17Zm5.46-5.6c-.4,0-1.15.95-1.35,2.91,1.57-.28,1.91-1.15,1.91-2C138.91,11.73,138.68,11.4,138.35,11.4Z"/>
            <path class="cls-1"
                  d="M143.64,13.16c0-1.65,2.49-4.59,4.23-4.59.95,0,1.2.33,1.2,1.17a10.5,10.5,0,0,1-1.12,4c2-3.53,4-4.79,5.21-4.79a1.79,1.79,0,0,1,1.93,1.93,7.85,7.85,0,0,1-.81,3.08,18.9,18.9,0,0,0-1.4,3.92c0,.31.14.42.39.42.56,0,2.32-1.43,4.06-3.92a1,1,0,0,1,1.09.92c0,1.77-4.73,6.5-7.31,6.5-1.65,0-2.21-.73-2.21-2.27,0-1.85,1.43-4.67,1.43-5.29a.3.3,0,0,0-.34-.34c-.25,0-1.17.42-2.26,1.94a34.37,34.37,0,0,0-.65,5.32c-.28.28-.47.36-1.12.36a3,3,0,0,1-2.74-3.16,9.93,9.93,0,0,1,.7-3.5A4.54,4.54,0,0,1,143.64,13.16Z"/>
        </g>
    </g>
</svg>
