<svg xmlns="http://www.w3.org/2000/svg" viewBox="0 0 335.52 335.52">
    <defs>
        <style>.cls-1{fill:#666;}</style>
    </defs>
    <title>Close button</title>
    <g id="Layer_2" data-name="Layer 2">
        <g id="Layer_1-2" data-name="Layer 1">
            <path class="cls-1"
                  d="M329.84,302.26l-134.5-134.5,134.5-134.5a19.56,19.56,0,0,0,0-27.57h0a19.55,19.55,0,0,0-27.58,0L167.76,140.18,33.26,5.69a19.54,19.54,0,0,0-27.57,0h0a19.54,19.54,0,0,0,0,27.57l134.49,134.5L5.69,302.26a19.5,19.5,0,0,0,27.57,27.58l134.5-134.5,134.5,134.5a19.5,19.5,0,0,0,27.58-27.58Z"/>
        </g>
    </g>
</svg>
